# xmcd
#
# Track frame offsets: 
#        150
#        5640
#        21817
#        39912
#        46767
#        63214
#        76660
#        95077
#        99115
#        122382
#        143110
#        162462
#        164465
#        186570
#        215685
#
# Disc length: 3184 seconds
#
# Revision: 6
# Processed by: cddbd v1.5.2PL0 Copyright (c) Steve Scherf et al.
# Submitted via: ExactAudioCopy v0.99pb4
#
DISCID=bd0c6e0f
DTITLE=David Hughes - This Other Eden
DYEAR=1999
DGENRE=Folk
TTITLE0=Heart (Intro)
TTITLE1=Jelly Babe
TTITLE2=Watching Brazil
TTITLE3=This Eden
TTITLE4=It's Hard To Imagine
TTITLE5=This Is My Life
TTITLE6=Shouthing At The Radio
TTITLE7=Project X
TTITLE8=Heart Of Stone
TTITLE9=Nobody Smokes In America
TTITLE10=Blue Car
TTITLE11=Waiting For the Bus
TTITLE12=On The Bus
TTITLE13=This Other Eden
TTITLE14=Heart
EXTD=
EXTT0=
EXTT1=
EXTT2=
EXTT3=
EXTT4=
EXTT5=
EXTT6=
EXTT7=
EXTT8=
EXTT9=
EXTT10=
EXTT11=
EXTT12=
EXTT13=
EXTT14=
PLAYORDER=
